<?xml version="1.0" encoding="UTF-8" standalone="no"?>
<svg width="45px" height="56px" viewBox="0 0 45 56" version="1.1" xmlns="http://www.w3.org/2000/svg" xmlns:xlink="http://www.w3.org/1999/xlink">
    <!-- Generator: Sketch 41.2 (35397) - http://www.bohemiancoding.com/sketch -->
    <title>Location 3</title>
    <desc>Created with Sketch.</desc>
    <defs></defs>
    <g id="Page-1" stroke="none" stroke-width="1" fill="none" fill-rule="evenodd">
        <g id="Location-3" fill="#000000">
            <path d="M22.5,3 C31.9,3 39.6,10.6 39.6,20 C39.6,24.6 37.8,28.8 34.2,33.1 C29.9,38.1 25.1,42.3 22.5,44.4 C19.6,42 14,37.1 10.8,33.1 C8.1,29.8 5.4,25.6 5.4,20 C5.4,10.6 13.1,3 22.5,3 L22.5,3 Z M22.5,0 C11.4,0 2.4,8.9 2.4,20 C2.4,26.2 5.2,31 8.5,35 C13.2,40.8 22.5,48.2 22.5,48.2 C22.5,48.2 30.1,42.5 36.5,35 C39.9,31 42.6,26.2 42.6,20 C42.6,8.9 33.6,0 22.5,0 L22.5,0 Z" id="Shape"></path>
            <rect id="Rectangle-path" x="0.5" y="52.6" width="44" height="3"></rect>
        </g>
    </g>
</svg>