<?xml version="1.0" encoding="iso-8859-1"?>
<!-- Generator: Adobe Illustrator 16.0.0, SVG Export Plug-In . SVG Version: 6.00 Build 0)  -->
<!DOCTYPE svg PUBLIC "-//W3C//DTD SVG 1.1//EN" "http://www.w3.org/Graphics/SVG/1.1/DTD/svg11.dtd">
<svg version="1.1" id="Capa_1" xmlns="http://www.w3.org/2000/svg" xmlns:xlink="http://www.w3.org/1999/xlink" x="0px" y="0px"
	 width="591.873px" height="591.873px" viewBox="0 0 591.873 591.873" style="enable-background:new 0 0 591.873 591.873;"
	 xml:space="preserve">
<g>
	<g>
		<path d="M490.336,251.234c0,0.05-0.018,0.113-0.018,0.168c-0.555,4.606-1.336,9.976-2.453,15.959
			c-0.363,1.944-0.736,3.897-1.163,5.851c-11.667,55.628-52.062,159.976-190.795,272.459
			C246.499,497.97,102.964,364.003,100.77,237.01c-0.045-1.926-0.295-3.789-0.295-5.742c0-0.527,0.063-1.068,0.082-1.608
			c0.009-0.949-0.132-1.917-0.082-2.875c0.063,0,0.145,0,0.223,0.018c2.389-105.842,88.778-190.944,195.201-190.944
			c107.94,0,195.419,87.488,195.419,195.41C491.326,231.276,491.781,238.377,490.336,251.234L490.336,251.234z M522.782,226.87
			C522.782,101.548,421.211,0,295.907,0C172.362,0,72.067,98.809,69.287,221.682c-0.086-0.022-0.186-0.022-0.264-0.022
			c-0.045,1.118,0.114,2.23,0.104,3.339c-0.018,0.623-0.104,1.245-0.104,1.872c0,2.258,0.282,4.43,0.346,6.66
			c2.558,147.405,169.188,302.974,226.547,358.343c161.075-130.601,207.958-251.738,221.514-316.325
			c0.49-2.267,0.908-4.52,1.345-6.783c1.299-6.959,2.217-13.184,2.835-18.535c0-0.063,0.018-0.131,0.018-0.195
			C523.3,235.093,522.782,226.87,522.782,226.87L522.782,226.87z"/>
	</g>
</g>
<g>
</g>
<g>
</g>
<g>
</g>
<g>
</g>
<g>
</g>
<g>
</g>
<g>
</g>
<g>
</g>
<g>
</g>
<g>
</g>
<g>
</g>
<g>
</g>
<g>
</g>
<g>
</g>
<g>
</g>
</svg>
