<!--?xml version="1.0" encoding="UTF-8"?-->
<svg xmlns="http://www.w3.org/2000/svg" viewBox="0 0 29.731 29.731">

  <path d="M23.895,29.731c-1.237,0-2.731-0.31-4.374-0.93c-3.602-1.358-7.521-4.042-11.035-7.556
           c-3.515-3.515-6.199-7.435-7.558-11.037C-0.307,6.933-0.31,4.245,0.921,3.015c0.177-0.177,0.357-0.367,0.543-0.563
           c1.123-1.181,2.392-2.51,4.074-2.45C6.697,0.05,7.82,0.77,8.97,2.201c3.398,4.226,1.866,5.732,0.093,7.478l-0.313,0.31
           c-0.29,0.29-0.838,1.633,4.26,6.731c1.664,1.664,3.083,2.882,4.217,3.619c0.714,0.464,1.991,1.166,2.515,0.642l0.315-0.318
           c1.744-1.769,3.25-3.296,7.473,0.099c1.431,1.15,2.15,2.272,2.198,3.433c0.069,1.681-1.27,2.953-2.452,4.075
           c-0.195,0.186-0.385,0.366-0.562,0.542C26.103,29.424,25.126,29.731,23.895,29.731z" fill="none" stroke="#000" stroke-width="2" stroke-linecap="round" stroke-linejoin="round"></path>
</svg>