<?xml version="1.0" ?>
<svg id="Layer_1" style="enable-background:new 0 0 96 96;" version="1.1" viewBox="0 0 96 96" xml:space="preserve" xmlns="http://www.w3.org/2000/svg" xmlns:xlink="http://www.w3.org/1999/xlink">
  <path d="M51,0c-24.9,0-45,20.3-45,45.3c0,8.3,2.2,16.3,6.4,23.3L0,96l28.7-11.2c6.8,3.9,14.4,5.9,22.3,5.9c24.9,0,45-20.3,45-45.3S75.8,0,51,0z M51,86.7c-7.1,0-14.1-1.8-20.3-5.4l-1.7-1L7.7,88.7l9.2-20.3l-1.1-1.8c-3.8-6.4-5.8-13.8-5.8-21.3C9.9,22.6,28.2,4,51,4c22.8,0,41,18.6,41,41.3S73.7,86.7,51,86.7z"/>
</svg>
